<?xml version="1.0" standalone="no"?>
<!DOCTYPE svg PUBLIC "-//W3C//DTD SVG 20010904//EN"
 "http://www.w3.org/TR/2001/REC-SVG-20010904/DTD/svg10.dtd">
<svg version="1.0" xmlns="http://www.w3.org/2000/svg"
 width="512.000000pt" height="512.000000pt" viewBox="0 0 512.000000 512.000000"
 preserveAspectRatio="xMidYMid meet">

<g transform="translate(0.000000,512.000000) scale(0.100000,-0.100000)"
fill="#000000" stroke="none">
<path d="M2285 4883 c-236 -29 -492 -97 -689 -182 l-49 -21 116 -115 c63 -63
156 -163 205 -221 l89 -107 -23 -111 c-33 -166 -54 -343 -61 -518 -3 -87 -8
-158 -10 -158 -3 0 -49 41 -102 90 -129 120 -260 223 -402 320 l-116 79 -7 50
c-14 104 -26 378 -20 439 4 40 3 62 -4 62 -16 0 -167 -114 -276 -209 -94 -82
-256 -252 -256 -269 0 -4 44 -27 98 -51 495 -218 948 -590 1274 -1043 44 -62
78 -104 75 -93 -25 86 -56 350 -63 540 -18 457 81 953 278 1390 27 61 52 116
55 123 5 12 -39 14 -112 5z"/>
<path d="M2720 4885 c0 -3 13 -31 29 -63 82 -164 184 -461 230 -677 12 -55 26
-116 31 -135 5 -19 17 -93 26 -165 21 -160 24 -571 5 -720 -14 -112 -39 -270
-48 -300 -3 -11 25 23 62 75 314 441 698 769 1184 1009 75 37 151 73 169 81
17 7 32 16 32 21 0 15 -136 162 -221 240 -77 70 -205 171 -288 229 l-34 24 6
-65 c7 -62 -6 -356 -19 -452 l-7 -48 -116 -79 c-143 -97 -276 -203 -403 -320
-53 -50 -98 -90 -101 -90 -2 0 -7 71 -10 158 -7 177 -27 346 -61 513 l-23 114
61 75 c33 41 125 141 205 222 l144 148 -59 26 c-102 46 -319 113 -446 138
-176 36 -348 56 -348 41z"/>
<path d="M318 3431 c-43 -98 -122 -321 -116 -326 2 -1 43 -6 93 -11 l90 -9 68
-99 c314 -455 688 -801 1145 -1060 92 -52 104 -57 120 -44 9 8 45 38 80 68
l62 53 -82 44 c-314 168 -569 361 -818 619 -127 132 -270 307 -310 379 -12 22
-28 47 -34 55 -28 33 -131 209 -187 319 -33 63 -61 116 -62 117 -1 1 -23 -46
-49 -105z"/>
<path d="M4708 3453 c-42 -89 -122 -231 -181 -318 -22 -33 -49 -76 -60 -95
-68 -121 -351 -434 -532 -590 -369 -316 -771 -525 -1278 -666 -32 -9 -57 -17
-55 -19 6 -6 270 -34 378 -40 l105 -6 99 41 c583 243 1098 666 1471 1209 41
60 82 111 90 115 9 3 51 9 95 12 44 4 80 9 80 11 0 2 -18 57 -40 122 -40 121
-118 301 -129 301 -4 0 -23 -35 -43 -77z"/>
<path d="M115 2293 c16 -167 28 -253 35 -253 15 0 142 -102 228 -184 l89 -85
16 33 c25 53 73 102 149 152 l70 47 -139 72 c-152 79 -240 131 -353 209 -41
29 -81 56 -88 60 -10 6 -11 -5 -7 -51z"/>
<path d="M4926 2294 c-79 -60 -256 -166 -393 -235 l-111 -57 69 -47 c186 -127
219 -259 97 -390 -53 -58 -103 -93 -207 -145 -107 -54 -131 -53 -223 10 -89
61 -121 68 -180 43 -47 -22 -73 -60 -83 -128 -5 -26 -18 -51 -43 -76 -33 -32
-47 -38 -129 -53 -294 -54 -589 -84 -909 -93 l-231 -6 -43 -86 c-79 -161 -180
-314 -297 -448 -35 -40 -63 -74 -63 -76 0 -3 28 -10 62 -16 105 -20 317 -78
427 -116 205 -72 367 -170 426 -259 17 -25 35 -46 41 -46 21 0 184 50 283 87
468 174 909 528 1187 953 158 242 276 520 339 800 40 176 68 431 48 429 -5 0
-34 -20 -67 -45z"/>
<path d="M1974 1933 c2 -10 7 -57 11 -106 6 -73 10 -89 27 -98 32 -17 523 22
501 41 -4 3 -33 12 -63 19 -84 20 -264 79 -373 122 -53 22 -100 39 -103 39 -3
0 -3 -8 0 -17z"/>
<path d="M597 1498 c-21 -120 -35 -240 -41 -354 l-5 -91 67 -89 67 -89 6 210
c4 116 12 243 18 282 l12 73 -52 75 c-28 41 -52 75 -54 75 -1 0 -9 -42 -18
-92z"/>
<path d="M1407 1509 l-49 -70 14 -87 c19 -127 16 -499 -5 -624 -9 -54 -17
-103 -17 -109 0 -6 35 36 77 93 97 130 267 305 400 410 112 89 104 75 129 222
l7 38 -77 -51 c-95 -64 -258 -195 -311 -250 -21 -23 -43 -41 -47 -41 -4 0 -8
44 -8 98 -1 129 -42 442 -59 442 -3 0 -28 -32 -54 -71z"/>
</g>
</svg>
